<?xml version="1.0" encoding="utf-8"?>
<!-- Generator: Adobe Illustrator 23.0.6, SVG Export Plug-In . SVG Version: 6.00 Build 0)  -->
<svg version="1.1" id="Layer_1" xmlns="http://www.w3.org/2000/svg" xmlns:xlink="http://www.w3.org/1999/xlink" x="0px" y="0px"
	 viewBox="0 0 1116.5 400" style="enable-background:new 0 0 1116.5 400;" xml:space="preserve">
<style type="text/css">
	.st0{stroke:#000000;stroke-width:2;}
</style>
<g id="lines">
	<path class="st0" d="M0.6,39.5h399.7"/>
	<path class="st0" d="M0.6,79.1h399.7"/>
	<path class="st0" d="M0.6,118.6h399.7"/>
	<path class="st0" d="M0.6,158.2h399.7"/>
	<path class="st0" d="M0.6,197.7h399.7"/>
	<path class="st0" d="M0.6,237.2h399.7"/>
	<path class="st0" d="M0.6,276.8h399.7"/>
	<path class="st0" d="M0.6,316.3h399.7"/>
	<path class="st0" d="M0.6,355.9h399.7"/>
	<path class="st0" d="M40.6,0v395.4"/>
	<path class="st0" d="M80.5,0v395.4"/>
	<path class="st0" d="M120.5,0v395.4"/>
	<path class="st0" d="M160.5,0v395.4"/>
	<path class="st0" d="M200.4,0v395.4"/>
	<path class="st0" d="M240.4,0v395.4"/>
	<path class="st0" d="M280.4,0v395.4"/>
	<path class="st0" d="M320.3,0v395.4"/>
	<path class="st0" d="M360.3,0v395.4"/>
</g>
<g id="lines_1_">
	<path class="st0" d="M360.1,39.5h399.7"/>
	<path class="st0" d="M360.1,79.1h399.7"/>
	<path class="st0" d="M360.1,118.6h399.7"/>
	<path class="st0" d="M360.1,158.2h399.7"/>
	<path class="st0" d="M360.1,197.7h399.7"/>
	<path class="st0" d="M360.1,237.2h399.7"/>
	<path class="st0" d="M360.1,276.8h399.7"/>
	<path class="st0" d="M360.1,316.3h399.7"/>
	<path class="st0" d="M360.1,355.9h399.7"/>
	<path class="st0" d="M400,0v395.4"/>
	<path class="st0" d="M440,0v395.4"/>
	<path class="st0" d="M480,0v395.4"/>
	<path class="st0" d="M519.9,0v395.4"/>
	<path class="st0" d="M559.9,0v395.4"/>
	<path class="st0" d="M599.9,0v395.4"/>
	<path class="st0" d="M639.8,0v395.4"/>
	<path class="st0" d="M679.8,0v395.4"/>
	<path class="st0" d="M719.8,0v395.4"/>
</g>
<g id="lines_2_">
	<path class="st0" d="M720.5,39.5h399.7"/>
	<path class="st0" d="M720.5,79.1h399.7"/>
	<path class="st0" d="M720.5,118.6h399.7"/>
	<path class="st0" d="M720.5,158.2h399.7"/>
	<path class="st0" d="M720.5,197.7h399.7"/>
	<path class="st0" d="M720.5,237.2h399.7"/>
	<path class="st0" d="M720.5,276.8h399.7"/>
	<path class="st0" d="M720.5,316.3h399.7"/>
	<path class="st0" d="M720.5,355.9h399.7"/>
	<path class="st0" d="M760.5,0v395.4"/>
	<path class="st0" d="M800.4,0v395.4"/>
	<path class="st0" d="M840.4,0v395.4"/>
	<path class="st0" d="M880.4,0v395.4"/>
	<path class="st0" d="M920.3,0v395.4"/>
	<path class="st0" d="M960.3,0v395.4"/>
	<path class="st0" d="M1000.3,0v395.4"/>
	<path class="st0" d="M1040.2,0v395.4"/>
	<path class="st0" d="M1080.2,0v395.4"/>
</g>
</svg>

